M48
; DRILL file {KiCad 6.0.11+dfsg-1} date Сб 13 июл 2024 13:03:11
; FORMAT={-:-/ absolute / metric / decimal}
; #@! TF.CreationDate,2024-07-13T13:03:11+03:00
; #@! TF.GenerationSoftware,Kicad,Pcbnew,6.0.11+dfsg-1
; #@! TF.FileFunction,Plated,1,2,PTH
FMAT,2
METRIC
; #@! TA.AperFunction,Plated,PTH,ViaDrill
T1C0.400
; #@! TA.AperFunction,Plated,PTH,ViaDrill
T2C0.700
%
G90
G05
T1
X3.542Y-1.117
X4.83Y-1.65
X7.04Y-12.81
X9.66Y-14.01
X9.83Y-1.19
X10.01Y-5.91
X12.64Y-12.61
X12.83Y-4.97
X13.17Y-1.29
X13.55Y-3.44
X15.29Y-2.18
X15.4Y-9.41
X15.46Y-4.92
X15.99Y-5.99
X16.345Y-4.92
X16.86Y-5.99
X16.94Y-1.98
X17.19Y-11.41
X17.23Y-4.92
X17.31Y-3.62
X17.31Y-8.44
X19.49Y-1.41
X20.23Y-6.15
X20.4Y-11.59
X20.45Y-8.1
X21.48Y-8.13
X21.56Y-11.73
X21.9Y-5.17
X22.57Y-3.66
X22.81Y-13.44
X23.91Y-12.1
X24.51Y-6.05
X25.1Y-13.43
X25.33Y-2.16
X25.5Y-12.11
X26.47Y-6.02
T2
X0.0Y0.0
X2.5Y-17.44
X27.38Y-17.43
X29.86Y0.0
T0
M30
